<svg id="Layer_1" data-name="Layer 1" xmlns="http://www.w3.org/2000/svg" viewBox="0 0 566.93 566.93"><defs><style>.cls-1{fill:#9c969e;}.cls-2{fill:#877f89;}.cls-3{fill:#b0a9b0;}.cls-4{fill:#5d6b34;}.cls-5{fill:#404724;}.cls-6{fill:#edebec;}.cls-7{fill:#4c404f;}.cls-8{fill:#dbd9dc;}</style></defs><path class="cls-1" d="M512.07,216.83c13.46,2.86,21.32,16.42,24.73,28.7,4.16,15,3.05,30.72,2.06,46-.61,9.43-1.16,18.87-.49,28.31.17,2.39,3.92,2.41,3.75,0-1.21-17.13,1.66-34.19,1.4-51.32-.23-14.76-2.8-30.62-12-42.67-4.62-6.07-10.89-11.07-18.48-12.69-2.35-.5-3.36,3.12-1,3.62Z"/><path class="cls-2" d="M308.8,273l-50.65,92.17a21.05,21.05,0,0,0-2.53,7.85l-3,26.22a20.89,20.89,0,0,1-2,6.8l-8.14,16.67a5.2,5.2,0,0,0,4.54,7.53h42.11l10.45-61.27,47.68-57.84Z"/><path class="cls-1" d="M488.64,430.19h26.27a6.77,6.77,0,0,0,6.68-7.31c-1.27-18.59-4.52-66.85-4.52-75.81,0-11.14,15.06-84,5-122.53l-24.25,24.85Z"/><path class="cls-3" d="M522.09,224.53c-6.69-41.13-53.53-96-93.67-89.11s-53.53,13.71-93.68-6.86-60.22-6.85-60.22-6.85c-20.07,6.85-45.55,2.35-63.56,11.14-14.63,7.13-36.53,74.69-42.24,109.68-.48,2.91-3.46,18.51-3.49,24.85A294.76,294.76,0,0,0,172.75,330l17.74-.38-17.74.38.12.51h17.89c-2-23.69.52-49.47,2.2-62.7a15.44,15.44,0,0,1,8.91-12.08c13-6.09,28.46-16.45,37.4-22.76A17,17,0,0,1,255.36,231a17.65,17.65,0,0,1,10.91,14.41l17.84,153.56a14.06,14.06,0,0,1-1.12,7.33l-8.09,18.09a4.11,4.11,0,0,0,3.65,5.83H308a6.78,6.78,0,0,0,6.7-6.85V299.94s53.86,47,123,27.6l18.09,21.07a13.91,13.91,0,0,1,3.33,9.06v42.48a14,14,0,0,1-.94,5.05l-7.48,19.36a4.11,4.11,0,0,0,3.74,5.63h40.93V341.07C495.33,320.51,528.78,265.67,522.09,224.53Z"/><path class="cls-4" d="M156.73,386.47H146.16a3.36,3.36,0,0,1-2.94-1.4l-18.6-22.79h-8.53V384.1a2.15,2.15,0,0,1-2.37,2.37h-9a2.15,2.15,0,0,1-2.37-2.37V319a2.15,2.15,0,0,1,2.37-2.37H128.8A23.14,23.14,0,0,1,152,339.84,22.62,22.62,0,0,1,139,360l19.17,23.56C159.37,385.05,158.73,386.47,156.73,386.47Zm-40.64-36.31H128.8c5.21,0,9.48-4.53,9.48-10.32s-4.27-10.32-9.48-10.32H116.09Z"/><path class="cls-4" d="M206.6,375.68v8.42a2.15,2.15,0,0,1-2.37,2.37H167.58a2.14,2.14,0,0,1-2.37-2.37V319a2.14,2.14,0,0,1,2.37-2.37h36.15A2.15,2.15,0,0,1,206.1,319v8.43a2.15,2.15,0,0,1-2.37,2.37H178.92v14.93h22.32a2.15,2.15,0,0,1,2.37,2.37v8.13a2.15,2.15,0,0,1-2.37,2.37H178.92v15.69h25.31A2.14,2.14,0,0,1,206.6,375.68Z"/><path class="cls-4" d="M273.83,383.8c.57,1.7-.25,2.67-2,2.67h-10a2.53,2.53,0,0,1-2.67-2L255.83,374H229l-3.36,10.55a2.52,2.52,0,0,1-2.66,2H213c-1.72,0-2.55-1-2-2.67l22.19-65.18a2.69,2.69,0,0,1,2.74-2h12.92a2.69,2.69,0,0,1,2.74,2l22.19,65.18Zm-22.1-22.71-9.3-29.18-9.29,29.18Z"/><path class="cls-4" d="M318.56,319v8.43a2.15,2.15,0,0,1-2.37,2.37H301.73V384.1a2.15,2.15,0,0,1-2.37,2.37h-9A2.15,2.15,0,0,1,288,384.1V329.82H273.55a2.15,2.15,0,0,1-2.37-2.37V319a2.15,2.15,0,0,1,2.37-2.37h42.64A2.15,2.15,0,0,1,318.56,319Z"/><path class="cls-4" d="M325.29,365.13V319a2.15,2.15,0,0,1,2.37-2.37h9A2.15,2.15,0,0,1,339,319v45.06c0,6.48,3.59,10.37,11.72,10.37s11.71-3.89,11.71-10.37V319a2.15,2.15,0,0,1,2.37-2.37h9a2.15,2.15,0,0,1,2.37,2.37v46.11c0,14.78-11.35,22.69-25.43,22.69S325.29,379.91,325.29,365.13Z"/><path class="cls-4" d="M442.49,386.47H431.91a3.36,3.36,0,0,1-2.94-1.4l-18.6-22.79h-8.53V384.1a2.15,2.15,0,0,1-2.37,2.37h-9a2.14,2.14,0,0,1-2.37-2.37V319a2.14,2.14,0,0,1,2.37-2.37h24.06a23.15,23.15,0,0,1,23.19,23.19,22.63,22.63,0,0,1-13,20.13l19.17,23.56C445.13,385.05,444.48,386.47,442.49,386.47Zm-40.65-36.31h12.72c5.21,0,9.47-4.53,9.47-10.32s-4.26-10.32-9.47-10.32H401.84Z"/><path class="cls-4" d="M492.36,375.68v8.42a2.15,2.15,0,0,1-2.37,2.37H453.33A2.15,2.15,0,0,1,451,384.1V319a2.15,2.15,0,0,1,2.37-2.37h36.16a2.15,2.15,0,0,1,2.37,2.37v8.43a2.15,2.15,0,0,1-2.37,2.37H464.68v14.93H487a2.14,2.14,0,0,1,2.37,2.37v8.13a2.14,2.14,0,0,1-2.37,2.37H464.68v15.69H490A2.14,2.14,0,0,1,492.36,375.68Z"/><path class="cls-5" d="M138.91,360a23.32,23.32,0,0,0,10.68-10.41H131.91a8.77,8.77,0,0,1-3.15.59H116v-.58l-13.71,0v34.5a2.14,2.14,0,0,0,2.36,2.37h9a2.15,2.15,0,0,0,2.37-2.37V362.33h8.53l18.6,22.79a3.36,3.36,0,0,0,2.94,1.4h10.58c2,0,2.64-1.42,1.39-2.94Z"/><path class="cls-5" d="M204.19,373.36H178.88V357.67h22.31a2.14,2.14,0,0,0,2.37-2.37v-5.74l-38.4,0v34.56a2.15,2.15,0,0,0,2.37,2.37h36.66a2.15,2.15,0,0,0,2.37-2.37v-8.43A2.14,2.14,0,0,0,204.19,373.36Z"/><path class="cls-5" d="M273.78,383.85l-11.69-34.34H248l3.7,11.62H233.09l3.7-11.61H222.67L211,383.85c-.57,1.7.25,2.67,2,2.67h10a2.53,2.53,0,0,0,2.67-2L229,374h26.79l3.36,10.55a2.53,2.53,0,0,0,2.67,2h10c1.72,0,2.54-1,2-2.67Z"/><path class="cls-5" d="M288,349.48v34.67a2.14,2.14,0,0,0,2.37,2.37h9a2.15,2.15,0,0,0,2.37-2.37V349.47Z"/><path class="cls-5" d="M362.4,349.42v14.71c0,6.48-3.59,10.37-11.72,10.37S339,370.61,339,364.13V349.44H325.25v15.73c0,14.78,11.34,22.69,25.43,22.69s25.43-7.91,25.43-22.69V349.41Z"/><path class="cls-5" d="M424.67,360a23.3,23.3,0,0,0,10.8-10.66H418.28a8.89,8.89,0,0,1-3.77.84H401.8v-.82H388.08v34.75a2.15,2.15,0,0,0,2.37,2.37h9a2.15,2.15,0,0,0,2.37-2.37V362.33h8.53l18.6,22.79a3.36,3.36,0,0,0,2.94,1.4h10.57c2,0,2.64-1.42,1.4-2.94Z"/><path class="cls-5" d="M489.94,373.36H464.63V357.67H487a2.15,2.15,0,0,0,2.37-2.37v-6l-38.4,0v34.81a2.14,2.14,0,0,0,2.37,2.37h36.65a2.15,2.15,0,0,0,2.37-2.37v-8.43A2.14,2.14,0,0,0,489.94,373.36Z"/><path class="cls-3" d="M201.8,382.21a29.8,29.8,0,0,0,16.85,5.26,35.18,35.18,0,0,0,13.81-3,6.91,6.91,0,0,0,3.61-9,6.65,6.65,0,0,0-8.75-3.7c-6.93,3-12.7,2.61-18.17-1.06-4.45-3-8.36-8.07-11.79-14.41a117,117,0,0,1-4.94-26.51H174.53C179.88,352.21,188.49,373.26,201.8,382.21Z"/><path class="cls-1" d="M314.67,299.9v0s53.86,47,123,27.6l-20.13-20.62a13.45,13.45,0,0,0-9.88-4c-26.1.27-56.5-9.06-75.25-15.92C323.74,283.86,314.67,290.47,314.67,299.9Z"/><path class="cls-1" d="M269.05,130.37l-18.91,44.15c-11.92,27.83-8.29,60.6,10.8,83.87a46.27,46.27,0,0,0,4.15,4.5,9.42,9.42,0,0,0,12.94-.13l2.33-2.22a191,191,0,0,0,13.87-15l14-16.69a174,174,0,0,0,19.29-27.56c5.83-10.59,10.43-21.73,12.6-32.86,5.35-27.41-9.45-58.48-35.37-61.05C289.42,105.9,275.23,116,269.05,130.37Z"/><path class="cls-6" d="M128.05,264.1c10.19-3,31.55-10.43,44.8-22.84a6,6,0,0,1,7-1.14c4.15,2.19,10.51,6.27,13.88,12a7.17,7.17,0,0,1-2.93,9.71c-11.06,6.08-38.12,18.09-63,6.72A2.42,2.42,0,0,1,128.05,264.1Z"/><path class="cls-7" d="M209.28,204a6.86,6.86,0,0,1-.07-13.71h.07a6.86,6.86,0,0,1,0,13.71Z"/><path class="cls-8" d="M189.52,247.1c-12.28,8.53-36.72,22.22-63.06,18.92a2.36,2.36,0,0,0,1.32,2.58c24.85,11.37,51.91-.64,63-6.72a7.16,7.16,0,0,0,2.94-9.71A24.14,24.14,0,0,0,189.52,247.1Z"/><path class="cls-3" d="M534.78,328.39l3.23-9.92a1.36,1.36,0,0,1,1.71-.87l10.09,3.29a1.35,1.35,0,0,1,.94,1.2l1.18,18.72a1.35,1.35,0,0,1-2.21,1.13L535.2,329.85A1.36,1.36,0,0,1,534.78,328.39Z"/><path class="cls-4" d="M23.93,351.28c0-20.39,15.24-36.25,36.39-36.25,15.58,0,28.9,9.6,33.19,23.61a1.94,1.94,0,0,1-2.05,2.67h-9.7a2.77,2.77,0,0,1-2.69-1.87c-3.12-6.78-10.35-11.05-18.75-11.05-13.69,0-22.67,9.48-22.67,22.89s9,22.9,22.67,22.9c8.4,0,15.63-4.27,18.75-11.05a2.77,2.77,0,0,1,2.69-1.87h9.7c1.62,0,2.49,1,2.07,2.47-4.14,14-17.53,23.81-33.21,23.81C39.17,387.54,23.93,371.68,23.93,351.28Z"/><path class="cls-5" d="M23.93,351.28c0-20.39,15.24-36.25,36.39-36.25,15.58,0,28.9,9.6,33.19,23.61a1.94,1.94,0,0,1-2.05,2.67h-9.7a2.77,2.77,0,0,1-2.69-1.87c-3.12-6.78-10.35-11.05-18.75-11.05-13.69,0-22.67,9.48-22.67,22.89s9,22.9,22.67,22.9c8.4,0,15.63-4.27,18.75-11.05a2.77,2.77,0,0,1,2.69-1.87h9.7c1.62,0,2.49,1,2.07,2.47-4.14,14-17.53,23.81-33.21,23.81C39.17,387.54,23.93,371.68,23.93,351.28Z"/></svg>