<?xml version="1.0" encoding="utf-8"?>
<!-- Generator: Adobe Illustrator 24.3.0, SVG Export Plug-In . SVG Version: 6.00 Build 0)  -->
<svg version="1.1" id="Capa_1" xmlns="http://www.w3.org/2000/svg" xmlns:xlink="http://www.w3.org/1999/xlink" x="0px" y="0px"
	 viewBox="0 0 512 512" style="enable-background:new 0 0 512 512;" xml:space="preserve">
<style type="text/css">
	.st0{fill:#FFFFFF;}
</style>
<g>
	<path class="st0" d="M481,180h-90v302h-30V300h-90v182h-30V240h-90v242h-30V330H31v152H0v30h512v-30h-31V180z M421,210h30v272h-30
		V210z M301,330h30v152h-30V330z M181,270h30v212h-30V270z M61,360h30v122H61V360z"/>
	<path class="st0" d="M391,30h69.6L316,173.8l-120-120L4.4,244.4l21.2,21.3L196,96.2l120,120L482,51.1V120h30V0H391V30z"/>
</g>
</svg>
